<?xml version="1.0" encoding="utf-8"?>
<!-- Generator: Adobe Illustrator 24.2.3, SVG Export Plug-In . SVG Version: 6.00 Build 0)  -->
<svg version="1.1" id="Слой_1" xmlns="http://www.w3.org/2000/svg" xmlns:xlink="http://www.w3.org/1999/xlink" x="0px" y="0px"
	 viewBox="0 0 110.14 55.32" style="enable-background:new 0 0 110.14 55.32;" xml:space="preserve">
<style type="text/css">
	.st0{fill:#1677ff}
</style>
<g>
	<g>
		<g>
			<path class="st0" d="M17.74,4.95c0.18,1.5-0.82,2.93-3.02,4.3c-1.46,0.92-3.1,1.65-4.91,2.18c3.27,0.35,5.5,1.19,6.7,2.53
				c0.81,0.95,1.22,1.96,1.22,3.05c0,2.06-1.35,4.07-4.05,6.03c-2.05,1.5-4.63,2.56-7.74,3.19c-1.61,0.32-3.25,0.52-4.94,0.59v-0.03
				c0.91-0.19,1.85-0.43,2.8-0.73C4.05,17.14,2.9,9.55,0.34,3.29l1.52-0.76c0.51-0.25,1.02-0.52,1.52-0.8
				c-0.71-0.05-1.83-0.1-3.35-0.17L0,1.42c1.22-0.14,2.79-0.26,4.72-0.38c0.49-0.23,0.84-0.4,1.07-0.52C5.83,0.71,5.85,0.87,5.85,1
				c2.48-0.05,4.67,0.12,6.58,0.48C15.73,2.11,17.49,3.27,17.74,4.95z M12.65,18.29c0-2.4-2.13-4.19-6.4-5.37
				c-0.29,4.36-1.03,8.72-2.22,13.06c2.13-0.72,3.96-1.66,5.49-2.84C11.6,21.55,12.65,19.93,12.65,18.29z M12.62,6.44
				C12.9,4.48,10.7,3.04,6,2.11c0.3,2.96,0.42,6.01,0.34,9.15h0.27C10.33,9.9,12.33,8.29,12.62,6.44z"/>
			<path class="st0" d="M36.45,24.63l-5.82,1.45c0.06-0.79,0.09-1.67,0.09-2.67c0-0.58-0.01-1.2-0.03-1.87L21,22.9l-0.52,1.97
				c-0.06,0.44-0.17,1.07-0.34,1.91l-0.09-0.03c-0.14-9.7,1.79-18.51,5.79-26.43L26.09,0C31.49,6.35,34.94,14.56,36.45,24.63z
				 M30.6,20.27c-0.29-4.16-1.08-8.91-2.38-14.27c-2.32,2.96-4.31,7.11-5.97,12.47L30.6,20.27z"/>
			<path class="st0" d="M44.22,18.12c3.86,0.81,7.27,2.15,10.24,4.02c-0.79,0.42-1.81,0.92-3.05,1.52l-3.05,1.49
				c-1.91-2.59-3.87-4.54-5.88-5.85c-0.59,2.7-1.42,5.5-2.5,8.38h-0.03c0.41-3.33,0.56-6.48,0.46-9.46
				c-0.65-0.28-1.39-0.55-2.22-0.83v-0.03c0.24,0.02,0.61,0.05,1.11,0.09c0.5,0.03,0.87,0.06,1.11,0.09
				c-0.26-4.8-1.14-9.41-2.62-13.82c0.61-0.25,1.53-0.63,2.77-1.14L38.7,2.11c-0.65-0.14-1.33-0.28-2.04-0.42V1.66
				c2.09-0.09,3.91-0.11,5.46-0.07c1.69,0.05,3.18,0.17,4.48,0.38c5.57,0.88,8.35,2.73,8.35,5.54
				C54.95,11.19,51.37,14.72,44.22,18.12z M49.04,9.21c0-2.24-1.83-4.12-5.49-5.65c0.08,1.34,0.12,2.67,0.12,3.98
				c0,3.39-0.3,6.77-0.88,10.12C46.95,14.71,49.04,11.9,49.04,9.21z"/>
			<path class="st0" d="M63.21,18.12c3.86,0.81,7.27,2.15,10.24,4.02c-0.79,0.42-1.81,0.92-3.05,1.52l-3.05,1.49
				c-1.91-2.59-3.87-4.54-5.88-5.85c-0.59,2.7-1.42,5.5-2.5,8.38h-0.03c0.41-3.33,0.56-6.48,0.46-9.46
				c-0.65-0.28-1.39-0.55-2.22-0.83v-0.03c0.24,0.02,0.61,0.05,1.11,0.09c0.5,0.03,0.87,0.06,1.11,0.09
				c-0.26-4.8-1.14-9.41-2.62-13.82c0.61-0.25,1.53-0.63,2.77-1.14l-1.86-0.45c-0.65-0.14-1.33-0.28-2.04-0.42V1.66
				c2.09-0.09,3.91-0.11,5.46-0.07c1.69,0.05,3.18,0.17,4.48,0.38c5.57,0.88,8.35,2.73,8.35,5.54
				C73.94,11.19,70.36,14.72,63.21,18.12z M68.02,9.21c0-2.24-1.83-4.12-5.49-5.65c0.08,1.34,0.12,2.67,0.12,3.98
				c0,3.39-0.3,6.77-0.88,10.12C65.94,14.71,68.02,11.9,68.02,9.21z"/>
			<path class="st0" d="M93.07,0.73c-1.75,4.75-3.78,9.08-6.1,13c0.89,1.45,1.95,2.81,3.17,4.08l-0.06,0.1
				c-0.04-0.02-0.7-0.51-1.98-1.45c-0.67-0.48-1.31-0.97-1.92-1.45c-3.54,5.66-7.41,10.68-11.61,15.07l-0.06-0.03
				c0.99-1.64,2.63-4.41,4.91-8.31c1.95-3.37,3.38-6.3,4.3-8.8c-3.35-3.07-6.1-6.53-8.23-10.39c1.58-0.07,3.95-0.21,7.1-0.42
				c0.69,3.05,1.44,5.53,2.26,7.45c0.91-3.01,1.63-6.14,2.16-9.39C88.35,0.31,90.37,0.5,93.07,0.73z"/>
		</g>
	</g>
	<g>
		<path class="st0" d="M39.68,55.32c-5.99-3.83-10.66-8.52-13.99-14.06c-0.57,3.9-1.64,7.86-3.2,11.88h-0.03
			c0.41-3.33,0.56-6.53,0.46-9.63c-1.36,1.04-2.62,1.93-3.78,2.67v-0.03c1.22-1.29,2.46-2.72,3.72-4.3
			c-0.3-4.34-1.16-8.56-2.56-12.64c0.91-0.37,1.84-0.75,2.77-1.14l2.8-1.18c0.22,2.15,0.34,4.26,0.34,6.34
			c0,1.41-0.05,2.8-0.15,4.16c2.3-3.58,4.11-7.42,5.46-11.54l2.74,0.83c0.89,0.28,1.8,0.54,2.71,0.8
			c-2.76,4.69-6.03,8.83-9.81,12.44c2.17-0.07,3.83-0.16,4.97-0.28c0.79,3.39,1.71,6.22,2.74,8.49c1.22,2.7,2.82,5.09,4.82,7.17
			V55.32z"/>
		<path class="st0" d="M53.61,46.07c-0.2,1.57-0.52,3.91-0.94,7.03c-2.72-2.19-5.63-3.29-8.72-3.29c-0.71,0-1.39,0.06-2.03,0.17
			c-0.64,0.12-1.22,0.26-1.72,0.42v-0.07c0.45-0.46,1.02-0.96,1.71-1.49c0.06-3.26-0.2-6.3-0.79-9.15l-1.01-0.24v-0.03l0.88-0.28
			c-0.53-2.24-1.27-4.48-2.22-6.72c0.47-0.25,1.17-0.63,2.1-1.14c-1-0.42-1.94-0.95-2.83-1.59v-0.03c0.61,0.07,1.22,0.1,1.83,0.1
			c4.35,0,8.28-1.7,11.79-5.09l0.85,3.43c0.28,1.13,0.58,2.26,0.88,3.39c-2.07,0.83-4.11,1.25-6.13,1.25
			c-1.32,0-2.63-0.18-3.93-0.55c0.28,2.13,0.43,4.17,0.43,6.13l8.5-2.6l-1.04,6.55l-7.53-1.91c-0.16,2.68-0.58,5.37-1.25,8.07
			c2.54-1.85,5.18-2.77,7.92-2.77C51.43,45.66,52.51,45.8,53.61,46.07z"/>
		<path class="st0" d="M72.75,26.08c0,7.97-1.22,15.4-3.66,22.31c0.12,0.76,0.29,1.92,0.52,3.46l-2.5,0.03
			c-0.22,0-1.18,0.03-2.86,0.1c0.12-1.64,0.18-3.24,0.18-4.82c0-5.24-0.77-10.47-2.32-15.69c0.02,0.69,0.03,1.39,0.03,2.08
			c0,7-1.22,13.65-3.66,19.95h-0.06c0.3-2.49,0.46-5,0.46-7.52c0-5.73-0.87-11.17-2.62-16.32l5.55-2.29
			c0.06,0.58,0.13,1.36,0.21,2.36c2.9,4.5,5.04,9.63,6.4,15.38c0.16-1.85,0.24-3.72,0.24-5.61c0-3.99-0.41-7.89-1.22-11.67
			c0.87-0.28,1.76-0.57,2.65-0.87L72.75,26.08z"/>
		<path class="st0" d="M91.79,50.61l-5.82,1.45c0.06-0.79,0.09-1.67,0.09-2.67c0-0.58-0.01-1.2-0.03-1.87l-9.69,1.35l-0.52,1.97
			c-0.06,0.44-0.17,1.07-0.34,1.91l-0.09-0.03c-0.14-9.7,1.79-18.51,5.79-26.43l0.24-0.31C86.84,32.33,90.29,40.54,91.79,50.61z
			 M85.94,46.25c-0.29-4.16-1.08-8.91-2.38-14.27c-2.32,2.96-4.31,7.11-5.97,12.47L85.94,46.25z"/>
		<path class="st0" d="M110.14,26.08c0,7.97-1.22,15.4-3.66,22.31c0.12,0.76,0.29,1.92,0.52,3.46l-2.5,0.03
			c-0.22,0-1.18,0.03-2.86,0.1c0.12-1.64,0.18-3.24,0.18-4.82c0-5.24-0.77-10.47-2.32-15.69c0.02,0.69,0.03,1.39,0.03,2.08
			c0,7-1.22,13.65-3.66,19.95h-0.06c0.3-2.49,0.46-5,0.46-7.52c0-5.73-0.87-11.17-2.62-16.32l5.55-2.29
			c0.06,0.58,0.13,1.36,0.21,2.36c2.9,4.5,5.04,9.63,6.4,15.38c0.16-1.85,0.24-3.72,0.24-5.61c0-3.99-0.41-7.89-1.22-11.67
			c0.87-0.28,1.76-0.57,2.65-0.87L110.14,26.08z"/>
	</g>
</g>
<g>
</g>
<g>
</g>
<g>
</g>
<g>
</g>
<g>
</g>
<g>
</g>
</svg>
